<svg width="106" height="96" viewBox="0 0 106 96" fill="none" xmlns="http://www.w3.org/2000/svg">
<path fill-rule="evenodd" clip-rule="evenodd" d="M56.0558 3.27984C65.9342 2.03532 79.6894 -2.52504 88.8887 1.87365C98.4485 6.44475 99.2501 14.2177 102.746 25.6048C106.328 37.2732 107.012 49.7904 104.504 61.8378C101.843 74.6245 94.2446 72.9275 85.22 80.7593C76.1563 88.625 62.7132 97.4379 47.3866 95.8021C20.4536 92.9275 -9.66955 54.7583 2.97238 25.6048C7.92371 14.1866 17.3033 6.66872 31.0815 3.27984C44.429 2.11474 47.7409 4.32739 56.0558 3.27984Z" fill="url(#paint0_linear)"/>
<path d="M84.5915 22.2204L69.7631 15.786C69.5289 15.6846 69.2633 15.6846 69.0291 15.786L60.247 19.5953C55.5927 15.5246 48.9992 14.5622 43.3839 17.1337C37.7686 19.7052 34.1678 25.3361 34.1749 31.535V36.1895C31.6169 36.1926 29.5441 38.2747 29.541 40.844V66.9092C29.5441 69.4785 31.6169 71.5606 34.1749 71.5636H65.6853C68.2432 71.5606 70.3161 69.4785 70.3192 66.9092V54.5282C70.3488 54.5096 70.3831 54.5021 70.4118 54.4817L80.6592 47.1536C83.4646 45.1532 85.1361 41.9156 85.1476 38.46V23.075C85.1481 22.7043 84.9297 22.3687 84.5915 22.2204ZM36.0284 31.535C36.0268 26.2295 39.0196 21.3818 43.7517 19.0249C48.4838 16.6679 54.1371 17.2093 58.3406 20.4219L54.1933 22.2204C54.1821 22.2264 54.1713 22.2329 54.1608 22.24C51.0089 20.7872 47.3376 21.0461 44.4187 22.9269C41.4998 24.8077 39.735 28.0517 39.7356 31.535V36.1895H36.0284L36.0284 31.535ZM53.6372 36.1895H41.589L41.5891 31.535C41.5782 28.6322 43.0696 25.9322 45.5274 24.4052C47.9852 22.8782 51.0563 22.7436 53.6372 24.0496V36.1895ZM65.6853 69.7019H34.1749C32.6394 69.7019 31.3946 68.4515 31.3946 66.9092V65.9783H36.9552C37.4671 65.9783 37.882 65.5615 37.882 65.0474C37.882 64.5332 37.4671 64.1165 36.9552 64.1165H31.3946V62.2547H36.9552C37.4671 62.2547 37.882 61.8379 37.882 61.3238C37.882 60.8096 37.4671 60.3929 36.9552 60.3929H31.3946V58.5311H36.9552C37.4671 58.5311 37.882 58.1143 37.882 57.6002C37.882 57.086 37.4671 56.6693 36.9552 56.6693H31.3946V54.8075H36.9552C37.4671 54.8075 37.882 54.3907 37.882 53.8766C37.882 53.3624 37.4671 52.9457 36.9552 52.9457H31.3946V51.0839H36.9552C37.4671 51.0839 37.882 50.6671 37.882 50.153C37.882 49.6389 37.4671 49.2221 36.9552 49.2221H31.3946V47.3603H36.9552C37.4671 47.3603 37.882 46.9435 37.882 46.4294C37.882 45.9153 37.4671 45.4985 36.9552 45.4985H31.3946V43.6367H36.9552C37.4671 43.6367 37.882 43.2199 37.882 42.7058C37.882 42.1917 37.4671 41.7749 36.9552 41.7749H31.3946V40.844C31.3946 39.3016 32.6394 38.0513 34.1749 38.0513H53.6372V38.46C53.6479 41.9149 55.3188 45.152 58.1237 47.1518L66.2265 52.9457H62.9049C62.3931 52.9457 61.9782 53.3624 61.9782 53.8766C61.9782 54.3907 62.3931 54.8075 62.9049 54.8075H68.4656V56.6693H62.9049C62.3931 56.6693 61.9782 57.086 61.9782 57.6002C61.9782 58.1143 62.3931 58.5311 62.9049 58.5311H68.4656V60.3929H62.9049C62.3931 60.3929 61.9782 60.8096 61.9782 61.3238C61.9782 61.8379 62.3931 62.2547 62.9049 62.2547H68.4656V64.1165H62.9049C62.3931 64.1165 61.9782 64.5332 61.9782 65.0474C61.9782 65.5615 62.3931 65.9783 62.9049 65.9783H68.4656V66.9092C68.4656 68.4515 67.2208 69.7019 65.6853 69.7019ZM83.294 38.46C83.2839 41.3126 81.9033 43.9848 79.5869 45.6353L69.3924 52.9243L59.1978 45.6353C56.8815 43.9848 55.5009 41.3126 55.4907 38.46V23.6866L60.449 21.5353L60.4749 21.5241L69.3924 17.6544L83.294 23.6866V38.46Z" fill="white"/>
<defs>
<linearGradient id="paint0_linear" x1="2.28194" y1="10.0823" x2="104.079" y2="11.9505" gradientUnits="userSpaceOnUse">
<stop stop-color="#255D8B"/>
<stop offset="1" stop-color="#3A80BA"/>
</linearGradient>
</defs>
</svg>
